<?xml version="1.0" standalone="no"?>
<!DOCTYPE svg PUBLIC "-//W3C//DTD SVG 20010904//EN"
 "http://www.w3.org/TR/2001/REC-SVG-20010904/DTD/svg10.dtd">
<svg version="1.0" xmlns="http://www.w3.org/2000/svg"
 width="222.000000pt" height="222.000000pt" viewBox="0 0 222.000000 222.000000"
 preserveAspectRatio="xMidYMid meet">
<metadata>
Created by potrace 1.11, written by Peter Selinger 2001-2013
</metadata>
<g transform="translate(0.000000,222.000000) scale(0.100000,-0.100000)"
fill="#000000" stroke="none">
<path d="M584 2201 c-119 -31 -224 -136 -249 -251 -46 -209 111 -402 325 -402
134 1 239 68 298 192 23 47 27 67 26 140 -1 101 -22 156 -87 224 -74 79 -215
123 -313 97z"/>
<path d="M1022 2006 c11 -27 20 -76 21 -108 2 -44 6 -58 17 -59 8 0 163 -1
345 -1 l329 -1 28 -28 28 -27 0 -231 0 -231 81 0 80 0 -3 293 c-3 319 -5 326
-66 385 -59 54 -65 55 -488 56 l-390 1 18 -49z m725 -42 c26 -40 -10 -83 -60
-70 -33 8 -43 40 -23 71 22 33 60 33 83 -1z m-149 -6 c13 -13 -2 -48 -21 -48
-23 0 -37 22 -26 42 11 21 30 23 47 6z"/>
<path d="M1325 1678 c-51 -28 -55 -42 -55 -225 l0 -173 -50 0 c-44 0 -50 -3
-50 -20 0 -19 5 -21 67 -18 l68 3 1 175 c0 96 3 185 7 196 4 12 18 25 30 28
32 8 240 7 253 -2 27 -17 32 -54 30 -224 l-1 -178 186 0 c234 0 221 9 222
-160 0 -102 -2 -123 -18 -140 -10 -11 -24 -20 -32 -20 -7 0 -13 -9 -13 -20 0
-23 -2 -23 39 -9 50 18 61 51 61 188 0 196 -6 201 -243 201 l-163 0 -1 168 c0
182 -5 202 -53 227 -35 18 -253 21 -285 3z"/>
<path d="M290 1464 c-43 -19 -77 -49 -98 -89 -24 -46 -25 -602 -1 -655 36 -80
136 -110 220 -67 72 36 82 65 82 233 l1 144 33 0 c19 0 33 -5 34 -12 1 -7 1
-79 1 -160 -1 -161 -7 -184 -63 -238 -17 -16 -40 -31 -52 -33 -13 -2 -6 -5 15
-6 31 -1 40 -6 55 -33 15 -28 19 -69 23 -283 l5 -249 221 1 c237 1 271 6 318
49 57 54 56 42 56 681 0 668 2 645 -81 700 l-43 28 -345 2 c-290 2 -352 0
-381 -13z"/>
<path d="M1790 803 c-1 -305 -4 -412 -13 -424 -28 -36 -51 -39 -321 -39 l-266
0 0 -102 c0 -107 -16 -166 -53 -197 -10 -7 -17 -16 -17 -20 0 -3 150 -5 334
-5 l333 1 49 27 c53 28 89 72 104 127 6 20 10 241 10 536 l0 503 -80 0 -80 0
0 -407z m-376 -567 c23 -30 23 -88 0 -123 -20 -32 -76 -55 -112 -47 -67 16
-104 86 -78 148 16 39 37 57 79 65 40 9 86 -9 111 -43z"/>
<path d="M1170 901 c0 -13 7 -18 28 -19 80 0 72 19 72 -176 0 -170 0 -174 25
-200 27 -29 21 -28 165 -31 199 -3 204 2 203 236 0 93 3 169 6 170 3 0 26 1
50 2 34 2 45 6 47 20 2 16 -5 18 -69 15 l-71 -3 -1 -183 c0 -231 6 -222 -160
-222 -167 0 -160 -10 -159 224 l0 186 -68 0 c-60 0 -68 -2 -68 -19z"/>
<path d="M179 603 c-5 -31 -4 -115 2 -119 4 -2 10 11 13 30 4 19 13 39 21 46
8 7 12 16 9 21 -8 14 -44 31 -45 22z"/>
<path d="M314 533 c-37 -19 -53 -43 -54 -79 0 -37 -21 -58 -50 -49 -14 4 -20
15 -20 36 0 16 -3 29 -8 29 -10 0 -8 -298 3 -330 24 -75 93 -121 184 -122 111
-1 99 -31 97 237 -1 225 -2 235 -22 256 -29 29 -96 40 -130 22z"/>
</g>
</svg>
