<svg
        x="0"
        y="0"
        viewBox="0 0 21.031015 21.37335"
        xmlns="http://www.w3.org/2000/svg">
    <path d="m 16.323316,12.806251 c 2.6448,0.3356 4.7077,2.4598 4.7077,5.0903 v 2.9768 c 0,0.2761 -0.2325,0.5 -0.5193,0.5 H 0.519285 C 0.23251,21.373351 0,21.149451 0,20.873351 v -2.9538 c 0,-2.64 2.055326,-4.8135 4.710496,-5.1218 0.15339,-0.0178 0.28762,0.1 0.28762,0.2487 v 2.5489 c 0,0.1947 -0.11781,0.3709 -0.30105,0.4531 -0.66495,0.2986 -1.12698,0.9481 -1.12698,1.6999 0,1.0754 0.94523,1.9423 2.07779,1.8709 0.97632,-0.0616 1.7642,-0.832 1.81425,-1.7729 0.04225,-0.7946 -0.4327,-1.4893 -1.12873,-1.7998 -0.18188,-0.0811 -0.29671,-0.2582 -0.29671,-0.4512 v -2.8387 c 0,-0.1237 0.14728,-0.1835 0.24095,-0.1148 4.26408,3.1294 3.98768,2.9815 4.23748,2.9815 h 8e-4 c 0.2422,0.0014 -0.0103,0.1362 4.237,-2.9812 0.0971,-0.0713 0.2415,-0.0046 0.2415,0.1148 v 2.1533 c 0,0.2148 -0.1423,0.4062 -0.3542,0.4736 -1.1125,0.3538 -1.9177,1.3638 -1.9177,2.552 v 2.3125 c 0,0.2871 0.2514,0.5177 0.5538,0.4989 0.276,-0.0172 0.4847,-0.2497 0.4847,-0.516 v -2.2954 c 0,-0.9475 0.8152,-1.7151 1.8057,-1.6868 0.9532,0.0273 1.6995,0.8045 1.6995,1.7227 v 2.2766 c 0,0.2871 0.2514,0.5177 0.5538,0.4989 0.276,-0.0172 0.4848,-0.2497 0.4848,-0.516 v -2.2954 c 0,-1.1882 -0.8052,-2.1982 -1.9177,-2.552 -0.2119,-0.0674 -0.3542,-0.2588 -0.3542,-0.4736 v -1.8557 c 0,-0.1498 0.1362,-0.2678 0.2904,-0.2483 z m -5.493,1.4574 2.7703,-2.0332 c 0.2803,-0.2056 0.0453,-0.6441 -0.2974,-0.5202 -1.7112,0.6186 -3.62096,0.6691 -5.58632,-0.0041 -0.33163,-0.1136 -0.56699,0.3185 -0.28703,0.5239 l 2.77095,2.0336 c 0.1859,0.1364 0.4436,0.1364 0.6295,0 z m -6.22166,3.4847 c 0,0.4825 0.40764,0.875 0.90875,0.875 0.50111,0 0.90874,-0.3925 0.90874,-0.875 0,-0.4825 -0.40763,-0.875 -0.90874,-0.875 -0.50111,0 -0.90875,0.3925 -0.90875,0.875 z m 5.90686,-6.555 c -7.1347333,-13.2133332 -3.5673667,-6.6066669 0,0 z"/>
    <circle cx="10.351239" cy="5.4128757" r="5.4128757"/>
</svg>
