<?xml version="1.0" encoding="UTF-8" standalone="no"?>
<svg
   height="13.503828pt"
   viewBox="0 0 18.000015 13.527611"
   width="18.000015pt"
   version="1.1"
   id="svg8"
   sodipodi:docname="email.svg"
   inkscape:version="1.1 (ce6663b3b7, 2021-05-25)"
   xmlns:inkscape="http://www.inkscape.org/namespaces/inkscape"
   xmlns:sodipodi="http://sodipodi.sourceforge.net/DTD/sodipodi-0.dtd"
   xmlns="http://www.w3.org/2000/svg"
   xmlns:svg="http://www.w3.org/2000/svg">
  <defs
     id="defs12" />
  <sodipodi:namedview
     id="namedview10"
     pagecolor="#ffffff"
     bordercolor="#666666"
     borderopacity="1.0"
     inkscape:pageshadow="2"
     inkscape:pageopacity="0.0"
     inkscape:pagecheckerboard="0"
     inkscape:document-units="pt"
     showgrid="false"
     inkscape:zoom="6.8247566"
     inkscape:cx="-59.489301"
     inkscape:cy="25.129101"
     inkscape:window-width="2560"
     inkscape:window-height="992"
     inkscape:window-x="0"
     inkscape:window-y="27"
     inkscape:window-maximized="1"
     inkscape:current-layer="svg8" />
  <path
     style="fill:#000000;stroke-width:0.0352253"
     d="M 1.3593757,13.49217 C 0.73093573,13.39099 0.15636573,12.8349 0.02439573,12.20011 c -0.0447,-0.2149 -0.0568,-8.4045404 -0.0124,-8.3848204 0.0145,0.006 1.73836997,1.15324 3.83074997,2.54841 2.0923797,1.39516 3.8961497,2.58087 4.0083897,2.63491 0.46829,0.22549 1.05936,0.30958 1.56222,0.22228 0.6503496,-0.11291 0.53473,-0.0436 4.6799396,-2.80491 2.11175,-1.40672 3.85968,-2.56981 3.88428,-2.58463 0.0361,-0.0217 0.0429,0.78611 0.0352,4.17618 l -0.01,4.2031204 -0.0844,0.21135 c -0.23152,0.57945 -0.72182,0.98211 -1.30696,1.07336 -0.28853,0.045 -14.9723293,0.0419 -15.2525293,-0.003 z M 8.7229554,8.1724796 c -0.10573,-0.0175 -0.27217,-0.0685 -0.36987,-0.11321 -0.0977,-0.0447 -1.88957,-1.22299 -3.9819497,-2.61834 -2.72683,-1.81846 -3.85079997,-2.58695 -3.96837997,-2.71331 -0.84162,-0.90444 -0.32826,-2.4079796 0.91188997,-2.6707696 0.35763,-0.0758 15.0195893,-0.0758 15.3772193,0 1.0593,0.22447 1.63472,1.3991696 1.1504,2.3485096 -0.1726,0.33834 -0.29806,0.42886 -4.20689,3.03557 -2.09238,1.39535 -3.8835796,2.57312 -3.9804496,2.61726 -0.16022,0.073 -0.55642,0.15952 -0.6869,0.15001 -0.0291,-0.002 -0.13934,-0.0182 -0.24507,-0.0357 z"
     id="path36" />
</svg>
