<svg
        width="24"
        height="24"
        viewBox="0 0 18.010896 18.040046"
        version="1.1"
        xmlns="http://www.w3.org/2000/svg">
    <path d="M 1.6449108,17.982219 C 0.87054995,17.815305 0.20650055,17.14477 0.04263925,16.364298 c -0.07792,-0.371058 -0.07792,-14.3149199 0,-14.6859779 0.1656645,-0.78911 0.8307702,-1.4542043 1.61988015,-1.6198801 0.3710584,-0.07792 14.3149206,-0.07792 14.6859786,0 0.78911,0.1656645 1.454204,0.8307701 1.61988,1.6198801 0.07792,0.371058 0.07792,14.3149199 0,14.6859779 -0.165664,0.78911 -0.83077,1.454205 -1.61988,1.619881 -0.360765,0.07573 -14.3517503,0.07389 -14.7035872,-0.002 z m 8.0649615,-4.224067 v -2.87028 H 8.6533281 7.5967811 V 9.7961071 8.7043461 h 1.0529805 1.0529776 l 0.015902,-1.012524 c 0.013914,-0.896287 0.024705,-1.044865 0.091976,-1.294268 0.3112388,-1.15176 1.1921058,-2.030912 2.3530288,-2.348448 0.242477,-0.06633 0.393466,-0.07724 1.253011,-0.09061 l 0.977307,-0.01505 v 1.095052 1.095055 h -0.808698 c -0.954454,0 -1.097912,0.0326 -1.378554,0.313241 -0.282856,0.282856 -0.31324,0.42 -0.31324,1.413771 v 0.843915 h 1.271672 1.271672 l -0.01846,0.07925 c -0.01022,0.04359 -0.09365,0.534877 -0.185542,1.091764 l -0.167055,1.0125219 h -1.086139 -1.086136 v 2.871335 2.871334 l 2.121894,-0.0099 2.121897,-0.0099 0.134429,-0.08357 c 0.07394,-0.04597 0.176966,-0.147832 0.228903,-0.226348 l 0.09448,-0.142777 V 9.0239601 1.8897071 l -0.08357,-0.134429 c -0.04597,-0.07394 -0.147832,-0.176966 -0.226348,-0.228931 l -0.142777,-0.09448 H 9.0055654 1.8687425 l -0.1427771,0.09448 c -0.078516,0.05196 -0.1803738,0.154987 -0.2263475,0.228931 l -0.083571,0.134429 -0.00909,7.056214 c -0.00625,4.8973619 0.0023,7.0987259 0.028396,7.1951689 0.045434,0.168731 0.2681754,0.40142 0.4285468,0.447669 0.069571,0.02016 1.6595953,0.03467 3.9810137,0.03657 l 3.8651935,0.0031 z"/>
</svg>
