<svg
        height="17.978857pt"
        viewBox="0 0 17.942308 18.010522"
        width="17.942308pt"
        version="1.1"
        id="svg8"
        xmlns="http://www.w3.org/2000/svg">
    <path style="fill:#ffffff"
          d="m 5.2759092,17.990741 c -0.3833,-0.016 -0.8587,-0.047 -1.0565,-0.069 -2.4962,-0.2859 -4.10100003,-1.7636 -4.51460003,-4.1569 -0.1089,-0.63033 -0.1299,-1.1992 -0.1485,-4.0192303 -0.029,-4.45753 0.031,-5.40993 0.4129,-6.49336 0.2345,-0.66579 0.566,-1.19623 1.06480003,-1.7039 0.7936,-0.80765003 1.7589,-1.26088003 3.0498,-1.43185003 0.7178,-0.0951 2.388,-0.13085 5.1995,-0.11137 3.3431998,0.0233 3.8777998,0.0602 4.7720998,0.33021 0.7974,0.24083 1.3772,0.57992 1.9585,1.14548003 0.8425,0.81976 1.2874,1.7915 1.464,3.19777 0.036,0.2866 0.046,1.26113 0.046,4.33184 -3e-4,3.5652003 -0.01,4.0065703 -0.061,4.4066103 -0.1895,1.3785 -0.6413,2.3426 -1.4759,3.15 -0.8637,0.8356 -1.9122,1.2587 -3.4457,1.3908 -0.5409,0.047 -6.2855998,0.073 -7.2650998,0.033 z m 6.5057998,-1.621 c 0.9118,-0.039 1.3782,-0.099 1.8142,-0.2319 0.5711,-0.1742 0.9801,-0.4267 1.3772,-0.8502 0.5573,-0.5943 0.8112,-1.2567 0.9144,-2.38601 0.058,-0.63347 0.086,-5.5678703 0.038,-6.8323303 -0.044,-1.17684 -0.099,-1.63532 -0.2574,-2.12985 -0.1837,-0.57522 -0.4068,-0.9408 -0.8089,-1.3258 -0.6244,-0.59782 -1.3587,-0.85176 -2.6789,-0.92648 -1.8022,-0.102 -6.9468998,-0.0698 -7.8502998,0.0491 -1.7111,0.22524 -2.6995,1.12384 -3.0044,2.73143 -0.1157,0.60982 -0.1401,1.4001 -0.1403,4.54229 -3e-4,3.7769503 0.031,4.3390503 0.2857,5.1242503 0.1809,0.5579 0.3968,0.8964 0.8386,1.3145 0.247,0.2338 0.3759,0.324 0.6648,0.4651 0.6007,0.2934 1.1798,0.4095 2.2706,0.455 0.9491,0.04 5.6235998,0.04 6.5362998,9e-4 z m -3.6077998,-2.7535 c -0.8178,-0.055 -1.6816,-0.3807 -2.3891,-0.90009 -0.2565,-0.18826 -0.7304,-0.66389 -0.9365,-0.93982 -0.2229,-0.29847 -0.4365,-0.68378 -0.5849,-1.05477 -0.2328,-0.58238 -0.3199,-1.0543403 -0.3187,-1.7282403 0,-1.28067 0.4828,-2.40788 1.4091,-3.3045 0.692,-0.6699 1.5041,-1.08096 2.4562,-1.24325 0.5008,-0.0854 1.3827,-0.0534 1.8431,0.0667 0.9272998,0.24205 1.6174998,0.64674 2.2671998,1.32951 0.8274,0.86948 1.2543,1.94774 1.2543,3.16819 0,1.2983503 -0.4747,2.4200803 -1.4057,3.3212003 -0.5264,0.50958 -1.0619,0.837 -1.74,1.06387 -0.6042998,0.2022 -1.1581998,0.2683 -1.8549998,0.2212 z m 0.9988,-1.6656 c 0.5741,-0.11858 1.0667998,-0.38607 1.4861998,-0.8069 0.6068,-0.60885 0.894,-1.2896503 0.8954,-2.1226103 0,-0.62648 -0.1586,-1.15724 -0.5044,-1.67694 -0.5627,-0.84567 -1.4727998,-1.32885 -2.4996998,-1.3271 -0.7998,0.001 -1.4771,0.27564 -2.0761,0.84078 -0.9044,0.85317 -1.1709,2.26538 -0.643,3.4079703 0.3902,0.84434 1.1879,1.48879 2.0787,1.67927 0.3244,0.0694 0.9408,0.0721 1.2629,0.005 z M 13.016409,5.2169407 c -0.2635,-0.0896 -0.5822,-0.42061 -0.6668,-0.69242 -0.211,-0.67842 0.2444,-1.34196 0.9528,-1.38823 0.3624,-0.0236 0.5749,0.0551 0.8262,0.30644 0.2513,0.25131 0.3301,0.46379 0.3065,0.82619 -0.027,0.40674 -0.2286,0.71753 -0.5772,0.8881 -0.2479,0.12131 -0.5894,0.14561 -0.8415,0.0599 z"/>
</svg>
