<?xml version="1.0" encoding="UTF-8" standalone="no"?>
<svg
   height="12.516214pt"
   viewBox="0 0 17.988136 12.538258"
   width="17.988136pt"
   version="1.1"
   id="svg8"
   sodipodi:docname="youtube.svg"
   inkscape:version="1.1 (ce6663b3b7, 2021-05-25)"
   xmlns:inkscape="http://www.inkscape.org/namespaces/inkscape"
   xmlns:sodipodi="http://sodipodi.sourceforge.net/DTD/sodipodi-0.dtd"
   xmlns="http://www.w3.org/2000/svg"
   xmlns:svg="http://www.w3.org/2000/svg">
  <defs
     id="defs12" />
  <sodipodi:namedview
     id="namedview10"
     pagecolor="#ffffff"
     bordercolor="#666666"
     borderopacity="1.0"
     inkscape:pageshadow="2"
     inkscape:pageopacity="0.0"
     inkscape:pagecheckerboard="0"
     inkscape:document-units="pt"
     showgrid="false"
     inkscape:zoom="9.6516634"
     inkscape:cx="5.2840633"
     inkscape:cy="16.111212"
     inkscape:window-width="2560"
     inkscape:window-height="992"
     inkscape:window-x="0"
     inkscape:window-y="27"
     inkscape:window-maximized="1"
     inkscape:current-layer="svg8" />
  <path
     style="fill:#000000;stroke-width:0.035218"
     d="m 4.6974853,12.488059 c -1.021087,-0.04827 -2.176507,-0.138773 -2.535708,-0.198576 -0.799,-0.133065 -1.48313702,-0.68847 -1.76209702,-1.430544 -0.310703,-0.826514 -0.446596,-2.5585397 -0.409524,-5.219587 0.02661,-1.910466 0.104155,-2.7871617 0.322712,-3.6487392 0.176307,-0.6950241 0.582892,-1.21166791 1.19885902,-1.52338351 0.362852,-0.183611 0.537513,-0.2137964 1.970731,-0.3403789 1.460894,-0.1290332 7.4948347,-0.1724229 9.7072957,-0.069798 1.178448,0.054663 2.210178,0.1326963 2.619063,0.1980647 0.732286,0.1171067 1.347673,0.5558592 1.672414,1.19240101 0.398236,0.7806081 0.556546,2.4474615 0.516861,5.4420872 -0.02124,1.602186 -0.04772,2.06047 -0.165886,2.87028 -0.129311,0.8861887 -0.282067,1.3176487 -0.612181,1.7291297 -0.277745,0.346203 -0.730846,0.639271 -1.161954,0.751561 -0.352301,0.09178 -1.355723,0.178784 -2.872858,0.24915 -1.413115,0.06554 -7.0899277,0.06443 -8.4877287,-0.0017 z M 9.5563563,7.5763433 C 11.106447,6.7724873 12.374442,6.1068643 12.374122,6.0971783 12.373647,6.0826963 10.631687,5.1695537 7.1556083,3.3615674 L 6.6697023,3.1088396 v 2.9762703 c 0,1.9069334 0.01227,2.9720504 0.03415,2.9645284 0.0188,-0.0065 1.30241,-0.669439 2.852501,-1.473295 z"
     id="path63" />
</svg>
