<svg id="Capa_1" enable-background="new 0 0 512 512" height="512" viewBox="0 0 512 512" width="512" xmlns="http://www.w3.org/2000/svg"><g><path d="m176.686 377.725h158.628v30.113h-158.628z"/><path d="m283.905 225.478c6.97-6.081 10.504-15.884 10.504-29.137 0-20.175-22.894-47.675-38.446-63.405-17.679 17.782-38.372 44.674-38.372 63.405 0 13.253 3.534 23.056 10.504 29.137 3.751 3.272 8.288 5.323 12.905 6.59v-34.752c0-8.284 6.716-15 15-15s15 6.716 15 15v34.752c4.617-1.267 9.154-3.317 12.905-6.59z"/><path d="m176.686 437.838c0 40.959 33.203 74.162 74.162 74.162h10.303c40.959 0 74.162-33.203 74.162-74.162z"/><path d="m256.377 0c-85.754-.204-155.8 69.668-155.799 155.423 0 42.883 17.372 81.705 45.459 109.823 19.406 19.427 30.648 45.533 30.648 72.991v9.488h64.315v-84.981c-33.317-5.51-53.409-29.904-53.409-66.402 0-43.319 52.588-90.148 58.584-95.344 5.638-4.887 14.011-4.887 19.648 0 5.996 5.197 58.585 52.025 58.585 95.344 0 36.499-20.091 60.893-53.409 66.402v84.981h64.314v-9.495c0-27.32 11.012-53.426 30.369-72.706 28.252-28.14 45.739-67.077 45.739-110.103 0-85.711-69.38-155.217-155.044-155.421z"/></g></svg>